<?xml version="1.0" encoding="utf-8"?>
<!-- Generator: Adobe Illustrator 25.4.1, SVG Export Plug-In . SVG Version: 6.00 Build 0)  -->
<svg version="1.1" id="Capa_1" xmlns="http://www.w3.org/2000/svg" xmlns:xlink="http://www.w3.org/1999/xlink" x="0px" y="0px"
	 viewBox="0 0 502.2 241.8" style="enable-background:new 0 0 502.2 241.8;" xml:space="preserve">
<style type="text/css">
	.st0{fill:#E8B8D6;}
	.st1{fill:#CC655B;}
	.st2{fill:#DC8478;}
	.st3{fill:#F29224;}
	.st4{fill:#F8E935;}
	.st5{fill:#F9B03C;}
	.st6{fill:#EF7D3A;}
	.st7{fill:#ED6A39;}
	.st8{fill:#D7451B;}
	.st9{fill:#FDA594;}
	.st10{fill:#FFFFFF;}
	.st11{opacity:0.58;}
	.st12{fill:#D795C1;}
	.st13{fill:#E9B9D7;}
	.st14{fill:#83AE8E;}
	.st15{fill:#C3DBC8;}
	.st16{fill:#EAAA31;}
	.st17{fill:#EDCA5F;}
	.st18{fill:#7778B6;}
	.st19{fill:#A9A8D5;}
	.st20{fill:#C3DCC9;}
</style>
<g>
	<g>
		<g>
			<path class="st0" d="M46.3,115.9c-1.2-1.4-1.4-3-0.7-4.7c0.7-1.7,2.4-2.7,4.3-2.6c0.9,0,1.6,0.3,2.4,0.7
				c6.2,2.8,12.4,5.3,18.7,7.8c0.9,0.3,1.7,0.7,2.5,1.2c1.8,1.1,2.5,3.3,1.8,5.3c-0.7,2-2.8,3.2-5,2.9c-0.5-0.1-0.9-0.2-1.3-0.4
				c-6.8-2.7-13.6-5.4-20.2-8.4C47.9,117.2,47,116.7,46.3,115.9z"/>
			<path class="st0" d="M37.7,147.8c-2.2-2.4-1.1-6.3,2.1-7.3c0.7-0.2,1.5-0.3,2.3-0.3c5.9-0.1,11.9-0.1,17.8-0.1
				c0.6,0,1.2,0,1.8,0.1c2.2,0.5,3.7,2.3,3.6,4.4c0,2.1-1.5,3.8-3.5,4.3c-0.6,0.1-1.2,0.2-1.8,0.2c-6,0-12,0.1-18,0.1
				C40.3,149.3,38.9,148.9,37.7,147.8z"/>
			<path class="st0" d="M78.4,172.1c-0.6,0.6-1.6,1.1-2.5,1.6c-3.5,2-6.8,4.2-10.1,6.4c-0.8,0.5-1.6,1-2.4,1.4
				c-2.1,0.9-4.3,0.2-5.5-1.6c-1.2-1.8-0.9-4.1,0.7-5.7c0.8-0.8,1.8-1.2,2.6-1.8c3.9-2.7,8-5.1,12.1-7.6c2.6-1.5,5-1.2,6.5,0.9
				C81.2,167.6,80.8,170.1,78.4,172.1z"/>
		</g>
		<g>
			<path class="st1" d="M279.4,150.2l1.1-2.9l-0.9-1.1c-4-1-4.3,2.5-4.3,2.5c-0.7,2.6-1.8,5.1-3.4,7.2c-0.1,0.1-0.1,0.2-0.2,0.3
				l-2.3,0.2l-5-3.5l-5.7-16.4l-1,1.8c0-1.2-0.1-2.4,0-3.5c2.8-7.5,5.1-15.2,6.1-23.2c0.7-5.4,0.8-10.9,0.1-16.4
				c0-0.2-0.1-0.3-0.2-0.4c0-0.5-0.1-1-0.1-1.5c0-0.3-1-0.1-1.1-0.1c-0.3,0.1-0.7,0.2-1,0.3c-0.4,0-0.8,0.1-1.1,0.2
				c-0.5,0.1-0.9,0.3-1.3,0.6c-0.5,0.2-0.9,0.4-1,0.7c-4.9,14.1-6.6,29.4-4.9,44.2c-1.3,3.1-2.8,6.2-4.4,9.1
				c-2.3,4-5.1,7.7-8.7,10.6c-1.5,1.2,0.8,2.2,1.9,1.3c5.3-4.3,9-10.1,11.9-16.2c0.1,0.8,0.3,1.6,0.4,2.4c0.9,4.5,2.2,8.9,5,12.6
				c0.2,0.2,0.5,0.3,0.9,0.2c0.2,0.2,0.4,0.4,0.6,0.5c0.8,0.7,1.8,1.3,2.8,1.7c0.3,0.1,0.8,0.1,1.1,0c0.1,0,0.2-0.1,0.3-0.1
				c0.1,0,0.2,0.1,0.3,0.2c1,0.4,2,0.5,2.9,0.2c0,0,6.2-0.7,7.4-5.4l0,0l5-7.6L279.4,150.2z M259.1,115.2c0.4-3.4,0.9-6.9,1.5-10.3
				c0.3-1.7,0.6-3.4,0.9-5.1c0,0,0-0.1,0-0.1c0.5,8.3-0.8,16.6-3,24.5c-0.1,0.3-0.2,0.6-0.3,1C258.4,121.8,258.7,118.5,259.1,115.2z
				 M256.6,112.2c-0.5,3.8-0.9,7.7-1.2,11.6c0.2-5,0.7-10,1.7-15c0,0,0,0,0,0C256.9,109.9,256.8,111,256.6,112.2z M275.9,154.2
				c0.2-0.4,0.4-0.8,0.6-1.2l1.2-0.9L275.9,154.2z"/>
			<path class="st1" d="M266.2,79.5c0.2-0.6,0.1-1.2-0.1-1.8c-0.1-0.8-0.4-1.5-1-2c-0.7-0.5-1.7-0.6-2.5-0.5c-1.1,0.1-2.1,0.5-3,1
				c-0.7,0.5-1.3,1-1.7,1.8c0,0,0,0.1,0,0.1c-0.3,0.3-0.5,0.6-0.6,1c-0.1,0.4-0.1,0.8,0,1.2c-0.2,0.8-0.3,1.7-0.2,2.5
				c0.2,1.1,0.7,2.1,1.5,2.9c0.4,0.3,1,0.3,1.5,0.2c0.7-0.1,1.4-0.3,2-0.6c0.5-0.4,1.1-0.8,1.5-1.2c1-0.5,1.9-1.2,2.3-2.2
				c0.3-0.7,0.3-1.5,0-2.2C266.1,79.7,266.1,79.6,266.2,79.5z"/>
			<path class="st2" d="M279.1,144.6c-0.7,2.6-1.8,5.1-3.4,7.2c-0.7,1-1.6,2-2.5,2.9c-0.4,0.4-0.9,0.9-1.5,1.1
				c-0.4,0.1-0.8,0-1.1-0.1c-0.1-0.1-0.2-0.1-0.3-0.2c-0.3-0.2-0.5-0.4-0.8-0.6c-3.6-2.8-5.7-7.1-6.8-11.4
				c-1.1-4.2-1.3-8.5-1.3-12.8c2.8-7.5,5.1-15.2,6.1-23.2c0.7-5.4,0.8-10.9,0.1-16.4c0-0.2-0.1-0.3-0.2-0.4c0-0.5-0.1-1-0.1-1.5
				c0-0.3-1-0.1-1.1-0.1c-0.3,0.1-0.7,0.2-1,0.3c-0.4,0-0.8,0.1-1.1,0.2c-0.5,0.1-0.9,0.3-1.3,0.6c-0.5,0.2-0.9,0.4-1,0.7
				c-4.9,14.1-6.6,29.4-4.9,44.2c-1.3,3.1-2.8,6.2-4.4,9.1c-2.3,4-5.1,7.7-8.7,10.6c-1.5,1.2,0.8,2.2,1.9,1.3
				c5.3-4.3,9-10.1,11.9-16.2c0.1,0.8,0.3,1.6,0.4,2.4c0.9,4.5,2.2,8.9,5,12.6c0.2,0.2,0.5,0.3,0.9,0.2c0.2,0.2,0.4,0.4,0.6,0.5
				c0.8,0.7,1.8,1.3,2.8,1.7c0.3,0.1,0.8,0.1,1.1,0c0.1,0,0.2-0.1,0.3-0.1c0.1,0,0.2,0.1,0.3,0.2c3.3,1.4,6.2-1.4,8.1-3.7
				c2.2-2.6,3.8-5.7,4.7-9C282.3,143.3,279.4,143.3,279.1,144.6z M262.9,111.1c0.4-3.4,0.9-6.9,1.5-10.3c0.3-1.7,0.6-3.4,0.9-5.1
				c0,0,0-0.1,0-0.1c0.5,8.3-0.8,16.6-3,24.5c-0.1,0.3-0.2,0.6-0.3,1C262.2,117.7,262.5,114.4,262.9,111.1z M259.2,119.7
				c0.2-5,0.7-10,1.7-15c0,0,0,0,0,0c-0.2,1.1-0.3,2.3-0.5,3.4C259.9,111.9,259.5,115.8,259.2,119.7z"/>
			<path class="st2" d="M268.3,76.2c0.2-0.6,0.1-1.2-0.1-1.8c-0.1-0.8-0.4-1.5-1-2c-0.7-0.5-1.7-0.6-2.5-0.5c-1.1,0.1-2.1,0.5-3,1
				c-0.7,0.5-1.3,1-1.7,1.8c0,0,0,0.1,0,0.1c-0.3,0.3-0.5,0.6-0.6,1c-0.1,0.4-0.1,0.8,0,1.2c-0.2,0.8-0.3,1.7-0.2,2.5
				c0.2,1.1,0.7,2.1,1.5,2.9c0.4,0.3,1,0.3,1.5,0.2c0.7-0.1,1.4-0.3,2-0.6c0.5-0.4,1.1-0.8,1.5-1.2c1-0.5,1.9-1.2,2.3-2.2
				c0.3-0.7,0.3-1.5,0-2.2C268.2,76.4,268.3,76.3,268.3,76.2z"/>
			<g>
				<g>
					<path class="st3" d="M384.8,215.5l-1-1.8c0,0,2.7-0.5,3.5-5.1c0.8-4.6-4.1-8.4-4.2-8.5l0.4-0.7c0.2,0.2,4.8,4.5,3.9,9.7
						C386.5,214.2,384.8,215.5,384.8,215.5z"/>
					<path class="st4" d="M387.4,209.1c0.1-0.6,0.1-1.2,0.1-1.7c0,0,0,0,0,0s0,0.4-0.1,0.9c0,0.1,0,0.2,0,0.2
						c-0.8,4.7-3.5,5.1-3.5,5.1l1,1.8C384.8,215.5,386.5,214.2,387.4,209.1z"/>
				</g>
				<g>
					<path class="st5" d="M383.1,200.1c0,0-0.1-0.9-0.1-0.9c0.9-0.8,5.1-8.4-1.3-21.4c-5.2-10.4,0.3-14.1-0.5-42.2l0.3,0
						c0.9,28.3-4.2,31.8,0.8,41.9C389.6,192.1,384.4,199.8,383.1,200.1z"/>
				</g>
			</g>
			<g>
				<path class="st6" d="M380.6,146.5l-1.1,3.7c0,0,0.1,0.2,1.2,0.3c1.1,0.1,2.9-0.5,3.3-0.8l-2-4.3L380.6,146.5z"/>
				<path class="st7" d="M380.6,146.5l-0.2,0.8c0.5,0.3,1.4,1,1.8,1.7c0.3,0.5,1,0.6,1.7,0.7c0,0,0,0,0,0l-2-4.3L380.6,146.5z"/>
				<polygon class="st8" points="380.4,147 382.5,146.6 381.9,145.4 380.6,146.5 				"/>
				<path class="st9" d="M379.7,149.9c0.7,0.3,1.7,0.1,2.4,0.1C381.5,150.3,380.3,150.4,379.7,149.9z"/>
			</g>
			<path class="st10" d="M407.8,104.3c1.8,15.7-8.5,39.9-24.6,41.8c-16,1.9-31.7-19.3-33.5-35c-1.8-15.7,9.7-30,25.7-31.9
				C391.5,77.3,405.9,88.6,407.8,104.3z"/>
			<path class="st6" d="M407.8,104.3c1.8,15.7-8.5,39.9-24.6,41.8c-16,1.9-31.7-19.3-33.5-35c-1.8-15.7,9.7-30,25.7-31.9
				C391.5,77.3,405.9,88.6,407.8,104.3z"/>
			<path class="st7" d="M385.7,136.6c-16,1.9-31.7-19.3-33.5-35c-0.2-1.9-0.2-3.8-0.1-5.6c-2.1,4.6-3,9.7-2.4,15.1
				c1.8,15.7,17.5,36.9,33.5,35c12.8-1.5,21.9-17.1,24.2-31.3C403.4,125.7,395.6,135.4,385.7,136.6z"/>
			<g class="st11">
				<path class="st9" d="M372.5,84.5c7.9-2.8,17.4-0.5,21.3,3.5c4.9,4.6,6.6,13.3,6.3,19.9c-1-5.9-3.4-14.1-8.1-17.8
					c-2-1.8-7-3.8-13.7-3.4c-2.7,0.1-5.1,0.7-4.9,0.7C371.5,87.8,370.7,85.1,372.5,84.5z"/>
			</g>
			<path class="st12" d="M450.9,128.4c-2.8-3.6-6.3-6.4-9.9-9c-3.3-2.4-6.6-4.7-9.3-7.7c-1.4-1.6-2.6-3.4-3.4-5.4
				c-0.5-1.4-0.7-2.8-0.8-4.2c0.1-0.7,0.2-1.3,0.4-2c0.2-0.3,0.3-0.6,0.5-0.9c0.2-0.3,0.5-0.5,0.8-0.7c0.2-0.1,0.3-0.2,0.5-0.3
				c0.2,0.2,0.3,0.5,0.4,0.7c0.6,1.2,2.4,1.9,3.6,2.2c1.6,0.4,3.7,0.2,5.3-0.4c2.6-1.1,5.3-3.4,3.7-6.5c-2.5-5-8.9-6.1-13.9-5.4
				c-5.1,0.7-10.2,3.6-12.9,8c-2.8,4.5-2.1,10.1,0.1,14.7c2.1,4.5,5.9,8.2,9.8,11.2c4.1,3.2,8.6,6,12.2,9.8c1.2,1.5,2.2,3.1,3,4.8
				c0.6,1.9,1,3.9,1,5.9c-0.1,2.1-0.6,4.2-1.3,6.2c-0.7,1.5-1.5,3-2.5,4.3c-0.7,0.7-1.4,1.4-2.1,2.1c-0.5,0.3-0.9,0.6-1.4,0.9
				c-0.5,0.2-0.9,0.4-1.4,0.5c-0.5,0.1-1,0.2-1.5,0.3c-0.5,0-1.1,0-1.6,0c-0.9-0.1-1.7-0.3-2.6-0.6c-1.2-0.4-2.3-0.9-3.4-1.6
				c-1.3-0.9-2.6-1.9-3.7-3.1c-1.2-1.4-2.1-3-2.8-4.6c-0.1-0.3-0.2-0.7-0.3-1.1c-0.8-3.1-4.7-4-7.5-3.4c-1.6,0.3-3.4,0.9-4.5,2.2
				c-0.9,0.9-1.8,2.2-1.4,3.6c1.8,7,7.1,12.5,13.6,15.5c3.5,1.6,7.5,2.5,11.3,2.6c4.6,0.1,9.1-1,13.2-3
				C454.4,157.7,459.9,139.8,450.9,128.4z"/>
			<path class="st13" d="M453.3,123.8c-2.8-3.6-6.3-6.4-9.9-9c-3.3-2.4-6.6-4.7-9.3-7.7c-1.4-1.6-2.6-3.4-3.4-5.4
				c-0.5-1.4-0.7-2.8-0.8-4.2c0.1-0.7,0.2-1.3,0.4-2c0.2-0.3,0.3-0.6,0.5-0.9c0.2-0.3,0.5-0.5,0.8-0.7c0.2-0.1,0.3-0.2,0.5-0.3
				c0.2,0.2,0.3,0.5,0.4,0.7c0.6,1.2,2.4,1.9,3.6,2.2c1.6,0.4,3.7,0.2,5.3-0.4c2.6-1.1,5.3-3.4,3.7-6.5c-2.5-5-8.9-6.1-13.9-5.4
				c-5.1,0.7-10.2,3.6-12.9,8c-2.8,4.5-2.1,10.1,0.1,14.7c2.1,4.5,5.9,8.2,9.8,11.2c4.1,3.2,8.6,6,12.2,9.8c1.2,1.5,2.2,3.1,3,4.8
				c0.6,1.9,1,3.9,1,5.9c-0.1,2.1-0.6,4.2-1.3,6.2c-0.7,1.5-1.5,3-2.5,4.3c-0.7,0.7-1.4,1.4-2.1,2.1c-0.5,0.3-0.9,0.6-1.4,0.9
				c-0.5,0.2-0.9,0.4-1.4,0.5c-0.5,0.1-1,0.2-1.5,0.3c-0.5,0-1.1,0-1.6,0c-0.9-0.1-1.7-0.3-2.6-0.6c-1.2-0.4-2.3-0.9-3.4-1.6
				c-1.3-0.9-2.6-1.9-3.7-3.1c-1.2-1.4-2.1-3-2.8-4.6c-0.1-0.3-0.2-0.7-0.3-1.1c-0.8-3.1-4.7-4-7.5-3.4c-1.6,0.3-3.4,0.9-4.5,2.2
				c-0.9,0.9-1.8,2.2-1.4,3.6c1.8,7,7.1,12.5,13.6,15.5c3.5,1.6,7.5,2.5,11.3,2.6c4.6,0.1,9.1-1,13.2-3
				C456.7,153.2,462.2,135.3,453.3,123.8z"/>
			<g>
				<path class="st14" d="M309.6,153.6c0-0.3-0.1-0.7-0.2-1c-0.4-1.5-0.7-3-1.1-4.5c-0.2-0.8-1-1.4-1.7-1.7
					c-0.9-0.3-2.2-0.3-3.1-0.1c-1,0.3-2,0.8-2.7,1.6c-0.1,0.1-0.1,0.2-0.2,0.3c-0.1,0-0.3-0.1-0.4-0.1c-1.1-0.1-2.1,0.1-3.1,0.5
					c-0.2-7.1-0.1-14.2,0.3-21.3c0.4-8.3,1.2-16.5,2.4-24.7c0.6-4.6,1.4-9.2,2.3-13.8c0.1-0.8-0.4-1.6-1-2.1
					c-0.7-0.5-1.9-0.7-2.8-0.6c-1.9,0.2-4.1,1.2-4.5,3.3c-1.6,8.2-2.8,16.4-3.6,24.7c-0.8,8.2-1.3,16.5-1.4,24.8
					c-0.1,4.7,0,9.3,0.2,14c-0.1,0.4,0,0.8,0.2,1.1c0.1,0.2,0.2,0.3,0.3,0.5c-0.3,0.7-0.4,1.6,0.2,2.3c0.6,0.7,1.4,1.1,2.3,1.2
					c2.7,0.3,5.4,0.5,8.2,0.8c1.8,0.2,3.7,0.5,5.5,0c1.7-0.5,3.4-1.6,3.9-3.3c0.1-0.2,0.2-0.5,0.2-0.7
					C309.7,154.4,309.6,154,309.6,153.6z"/>
				<path class="st14" d="M365.4,162.2c-0.2-0.5-0.4-1-0.6-1.5c0.2-0.3,0.3-0.6,0.2-1c-0.5-0.8-0.9-1.7-1.4-2.5
					c-0.1-0.3-0.3-0.5-0.5-0.6c-0.3-0.2-0.6-0.3-1-0.4c-0.9-0.2-2.1,0-3,0.2c-0.9,0.3-2,0.6-2.7,1.3c-0.2,0.2-0.4,0.4-0.5,0.5
					c-0.2,0.3-0.3,0.6-0.3,1c0,0.5-0.2,0.9-0.3,1.3c-0.1,0.2-0.3,0.4-0.5,0.6c-0.1,0.1-0.1,0.1-0.2,0.2c0,0-0.1,0-0.1,0
					c-0.5,0-0.9,0-1.4,0c-2.6-0.2-5.1-0.7-7.6-1.4c-3-0.9-6-2.1-8.8-3.5c-0.7-0.4-1.9-0.3-2.7-0.2c-1,0.1-2.2,0.5-3.1,1
					c-0.2,0.2-0.5,0.3-0.7,0.5c0,0,0,0-0.1,0.1c-1.9-1.8-3.5-3.8-4.8-6c-3.3-5.5-5-11.7-6.1-17.9c0-0.3-0.1-0.5-0.1-0.8
					c0.1,0,0.2-0.1,0.3-0.1c0.7-0.3,1.8-0.9,2.2-1.7c0.3-0.6,0.5-1.3,0-1.8c-0.6-0.6-1.4-0.8-2.2-0.8h-0.9c0-0.2,0-0.3-0.1-0.5
					c-0.1-0.6-1.1-0.9-1.5-1c-0.9-0.2-2.1,0-3,0.2c-0.9,0.3-2,0.6-2.7,1.3c0,0,0,0-0.1,0.1c-0.6,0.1-1.1,0.3-1.7,0.5
					c-0.7,0.3-1.8,0.9-2.2,1.7c-0.3,0.6-0.5,1.3,0,1.8c0.6,0.6,1.4,0.8,2.2,0.8h1.3c0.7,4.5,1.6,8.9,3.2,13.2
					c1.7,4.7,4.1,9.2,7.5,12.9c1.7,1.9,3.7,3.4,5.8,4.8c2.5,1.5,5.1,2.5,7.9,3.3c2.7,0.7,5.5,1.2,8.3,1.5c3.2,0.3,6.3,0.4,9.5,0.2
					c1.7-0.1,3.4-0.2,5.1-0.5c2.4-0.4,5.1-1.2,6.8-3.1C365.6,164.8,365.8,163.5,365.4,162.2z M356.1,165c0.4-0.1,0.9-0.3,1.3-0.4
					c0,0.1,0.1,0.2,0.1,0.3c-0.4,0-0.8,0.1-1.3,0.1C356.1,165,356.1,165,356.1,165z"/>
				<path class="st14" d="M327.4,101.1c-0.4-1.2-1.1-2.4-1.9-3.4c-0.9-1.1-2-1.9-3.2-2.6c-2.7-1.5-5.8-2.1-8.8-2.6
					c-1-0.2-2.1,0-3,0.3c-0.9,0.2-2,0.7-2.7,1.3c-0.4,0.3-1.1,0.9-0.9,1.5c0.2,0.6,0.9,0.8,1.5,0.9c1.2,0.2,2.3,0.4,3.5,0.7
					c1.3,0.3,2.5,0.8,3.6,1.4c1.1,0.7,2.1,1.6,2.9,2.7c1,1.8,1.5,3.8,1.5,5.8c-0.1,1.8-0.6,3.5-1.5,5.1c-0.6,1-1.4,2-2.2,2.8
					c-0.7,0.6-1.4,1.2-2.1,1.7c-0.3,0.2-0.6,0.4-0.9,0.5c-0.2,0.1-0.4,0.2-0.7,0.4c-0.1,0-0.1,0.1-0.2,0.1c-0.7,0.3-1.4,0.7-1.9,1.3
					c-0.3,0.4-0.5,1-0.1,1.4c0.6,0.5,1.4,0.6,2.1,0.5c1.1,0,2.2-0.2,3.2-0.7c1.7-0.8,3.2-1.6,4.7-2.6c1.2-0.8,2.3-1.8,3.3-2.8
					c1.8-1.8,3.2-4.1,3.9-6.6C328.2,106.1,328.2,103.4,327.4,101.1z"/>
				<path class="st15" d="M365.1,155.6c-1-1.9-1.8-4-2.8-5.9c-0.4-0.7-0.7-0.9-1.5-0.5c-3.8,1.5-7.5,3.3-11.6,3.8
					c-2.2,0.3-4.5,0.3-6.5-0.7c-2.3-1.2-4.3-2.9-5.8-5c-2.4-3.3-4.1-7-5.7-10.7c-1.5-3.4-2.1-7-2.7-10.5c-0.2-1,0-1.4,0.8-2
					c2.9-2.3,5.3-5.1,7.2-8.3c2.3-4,2.6-8.5,2.2-13c-0.2-2.9-1.1-5.7-2.9-8.1c-1.1-1.4-2.2-2.7-3.3-4c-2.2-2.6-4.8-4.7-8.2-5.6
					c-2.7-0.7-5.5-1-8.3-1.1c-2.5-0.1-4.9-0.2-7.4,0.2c-3,0.4-6,0.4-8.9,1.3c-0.9,0.3-1.3,0.7-1.5,1.5c-0.8,3.6-0.9,7.3-1,11
					c-0.3,6.2,0.1,12.3-0.2,18.5c-0.2,5.6,0.1,11.1-0.3,16.7l0,0c0,0,0,0,0,0c0,2.8,0,5.6,0,8.4l0,0c0,0,0,0,0,0c0,1.8,0,3.7,0,5.5
					v0v0c0,0,0,0,0,0c0,0.4,0,0.9,0,1.3c0,0,0,0,0,0c0.4,1.2,0.2,2.6,0.4,3.8c0.1,0.9,0.4,1.1,1.2,1c3.8-0.2,7.6-0.2,11.4,0.3
					c0.7,0.1,0.7-0.4,0.7-0.8c0-1.3-0.1-2.5-0.2-3.7c-0.2-6.2,0.3-12.4,0.2-18.6c0-0.7,0.2-0.9,0.9-0.9c1.2,0,2.4,0.1,3.5-0.2
					c0.9-0.2,1.1,0.4,1.1,1.1c0.2,2.3,0.8,4.5,1.5,6.7c1.8,5.8,4.4,11.3,7.4,16.5c1,1.8,2.1,3.5,3.8,4.7c4.8,3.5,10.2,5,16,5.5
					c4,0.3,8.1,0.2,12.1-0.8c2.7-0.7,5.4-1.3,7.8-2.7c0.3-0.2,0.9-0.4,0.7-0.9c-0.4-1-0.1-2,0.4-2.9
					C365.5,156.3,365.3,155.9,365.1,155.6z M322.4,114.1c-2.6,2.3-5.4,4-8.8,3.6c-1,0-1.8,0-2.6,0c-0.6,0-0.8-0.2-0.8-0.8
					c0-2.6-0.1-5.2-0.2-7.7c-0.1-4.4-0.3-8.9-0.7-13.3c0-0.6,0.1-0.9,0.8-1c4.7-0.8,8.9,0.9,12.8,3.1c2.9,1.6,3.6,4.5,3.3,7.5
					C326.1,108.8,324.9,111.8,322.4,114.1z"/>
			</g>
			<path class="st16" d="M151.8,158.6c-0.5-12.9-9.9-24.5-21.8-29.4c-3.1-1.3-6.3-2.1-9.6-2.5c6.1-5,12.2-9.9,18.4-14.9
				c1-0.8,2-1.6,3-2.4c0.1-0.1,0.2-0.1,0.2-0.2c1.1-0.9,2.2-1.8,3.3-2.7c0.4-0.3,0.9-0.8,0.4-1.3c-0.6-0.5-2.2-0.5-2.8-0.5
				c-1.5,0-3,0.2-4.5,0.6c-1.1,0.3-2.4,0.5-3.3,1.3c-6,4.9-12.1,9.8-18.1,14.7c0-5.9,0-11.9,0-17.8c0-8.4,0-16.9-0.1-25.3l0-12.8
				c0-3.9,0.1-7.7-0.1-11.6c-0.1-3.3-0.4-6.6-1.5-9.8c-0.6-1.6-1.3-3.2-2.3-4.7c-1.1-1.5-2.5-2.7-4.1-3.8c-0.8-0.5-2-0.6-2.9-0.6
				c-1.3,0-2.6,0.1-3.8,0.5c-1.5,0.5-3.7,1.3-3.8,3.1c-0.6,14.9-1.2,29.7-1.7,44.6c-0.6,14.9-1.2,29.7-1.7,44.6
				c-0.3,8.3-0.6,16.7-1,25c0,0.5,0.6,1,1.2,1.2c-0.3,0.2-0.7,0.5-0.9,0.7c-0.5,0.6-0.9,1.4-0.2,2c0.7,0.7,1.9,1,2.9,1.1l11.8,0.4
				c2,0.1,4-0.1,5.8-1c1.1-0.5,2.5-1.3,2.5-2.6c0-7,0-14,0-21c0.2,0,0.3,0,0.5,0.1c0.7,0.1,1.4,0.3,2.2,0.5c1.9,0.6,3.6,1.3,5.4,2.2
				c2.5,1.4,4.8,3.1,6.9,5.1c2.7,2.8,4.9,6.1,6.5,9.7c1.2,3,1.8,6.1,2,9.3c0,1,1.3,1.8,2.1,2.1c1.2,0.5,2.9,0.6,4.2,0.3
				C148.9,162.6,151.9,161.3,151.8,158.6z M104.4,152.8c0.5-0.4,0.9-0.9,1-1.7c0-0.5,0-1.1,0.1-1.6l0,3.3L104.4,152.8z"/>
			<path class="st17" d="M156.6,154.7c-0.5-12.9-9.9-24.5-21.8-29.4c-3.1-1.3-6.3-2.1-9.6-2.5c6.1-5,12.2-9.9,18.4-14.9
				c1-0.8,2-1.6,3-2.4c0.1-0.1,0.2-0.1,0.2-0.2c1.1-0.9,2.2-1.8,3.3-2.7c0.4-0.3,0.9-0.8,0.4-1.3c-0.6-0.5-2.2-0.5-2.8-0.5
				c-1.5,0-3,0.2-4.5,0.6c-1.1,0.3-2.4,0.5-3.3,1.3c-6,4.9-12.1,9.8-18.1,14.7c0-5.9,0-11.9,0-17.8c0-8.4,0-16.9-0.1-25.3l0-12.8
				c0-3.9,0.1-7.7-0.1-11.6c-0.1-3.3-0.4-6.6-1.5-9.8c-0.6-1.6-1.3-3.2-2.3-4.7c-1.1-1.5-2.5-2.7-4.1-3.8c-0.8-0.5-2-0.6-2.9-0.6
				c-1.3,0-2.6,0.1-3.8,0.5c-1.5,0.5-3.7,1.3-3.8,3.1c-0.6,14.9-1.2,29.7-1.7,44.6c-0.6,14.9-1.2,29.7-1.7,44.6
				c-0.3,8.3-0.6,16.7-1,25c0,0.5,0.6,1,1.2,1.2c-0.3,0.2-0.7,0.5-0.9,0.7c-0.5,0.6-0.9,1.4-0.2,2c0.7,0.7,1.9,1,2.9,1.1l11.8,0.4
				c2,0.1,4-0.1,5.8-1c1.1-0.5,2.5-1.3,2.5-2.6c0-7,0-14,0-21c0.2,0,0.3,0,0.5,0.1c0.7,0.1,1.4,0.3,2.2,0.5c1.9,0.6,3.6,1.3,5.4,2.2
				c2.5,1.4,4.8,3.1,6.9,5.1c2.7,2.8,4.9,6.1,6.5,9.7c1.2,3,1.8,6.1,2,9.3c0,1,1.3,1.8,2.1,2.1c1.2,0.5,2.9,0.6,4.2,0.3
				C153.7,158.7,156.7,157.4,156.6,154.7z M109.2,148.9c0.5-0.4,0.9-0.9,1-1.7c0-0.5,0-1.1,0.1-1.6l0,3.3L109.2,148.9z"/>
			<path class="st18" d="M239.5,133.2c-0.1-2-1.4-3-4-3.1c-6.8-0.3-7.7-0.4-7.2,4.6c0.5,4.4,0.6,8.8,0.5,13.3c0,1.6-0.3,3.3-0.9,4.8
				c-0.2,0.5-0.5,1-0.8,1.5c-1.4,2.3-3,2.8-6.3,2c-0.5-0.1-0.9-0.3-1.4-0.4c-0.2-0.1-0.4-0.1-0.6-0.2c-1.3-0.6-2.4-1.3-3.2-2.1
				c-1.2-1.2-2-2.6-2.8-4.1c-0.9-1.8-1.5-3.6-1.9-5.4c-0.1-0.5-0.2-0.9-0.3-1.4c-0.1-0.8-0.2-1.5-0.3-2.3c-0.2-1.9-0.4-3.9-0.5-5.8
				c-0.1-1.9-0.2-3.7-0.2-5.6c0,0,0,0,0,0c0-3.2,0.1-6.3,0.3-9.5c0.2-3.2,0.5-6.3,0.8-9.5c0.1-0.7,0.1-1.3,0.2-2c0.2-2,0.3-4,0.6-6
				c0-0.1,0-0.3,0-0.4c0-0.2,0-0.3,0-0.5c0-0.2-0.1-0.3-0.1-0.4c-0.2-0.4-0.5-0.7-0.8-0.9c-0.1-0.1-0.2-0.1-0.3-0.2
				c-0.2-0.1-0.3-0.2-0.5-0.2c-0.5-0.2-1-0.3-1.6-0.4c-0.3,0-0.6-0.1-0.9-0.1c-0.8-0.1-1.5-0.1-2.1,0.1c-1.3,0.3-2.2,1.1-2.7,2.3
				c-0.2,0.5-0.2,1-0.2,1.5c0,0,0,0,0,0c0,0.2,0,0.3,0,0.5c0.2,7.8-0.2,15.5-0.5,23.3c0,1.1-0.1,2.2-0.1,3.3c0,0.3,0,0.6,0,0.9
				l0-0.1c0,0,0.1,8.5-4,13c-2.6,2.9-5.5,5.5-9.9,6.7c-1.6,0.4-3.2,0.6-4.8,0.2c-4.3-1.3-8-3.4-10.3-7c-1.8-2.8-2.9-5.6-3.3-8.6
				c-1.3-10.6,3.3-19.1,10.8-26.5c1.4-1.4,3.3-2.2,5.3-2.9c1.4-0.5,3-0.7,4.6-0.4c1.1,0.2,1.8,0.4,1.2,1.5c-0.4,0.8-0.7,1.8-0.7,2.8
				c-0.1,1.5,0.5,2.9,2.2,3.8c1.6,0.9,3.2,0.7,4.6-0.1c4.5-2.5,4.8-7.7,0.7-11.1c-4.8-3.9-10.3-5-15.7-3
				c-10.7,3.9-17.9,10.7-21,20.3c-2.1,6.7-2.3,13.7-1.7,20.9c0.6,7.5,4.6,13.3,12.4,17.4c0.6,0.3,1.3,0.7,2,1c0,0,0,0,0,0
				s4.6,3.2,11.1,3.6l0,0c6.5,1,11.7-1.1,16.2-4.7c1.7-1.4,3.2-2.9,4.5-4.7c0.5,0.6,1,1.2,1.5,1.8c0,0,0,0,0,0
				c0.6,0.6,1.2,1.1,1.8,1.6c0,0,0,0,0,0c0.6,0.5,1.3,1,2,1.4c0,0,0,0,0,0c0.4,0.2,0.7,0.4,1.1,0.6c0,0,0,0,0,0
				c0.4,0.2,0.7,0.4,1.1,0.6c0,0,0.1,0,0.1,0c0.4,0.2,0.8,0.4,1.2,0.5c0,0,0.1,0,0.1,0.1c0.4,0.1,0.7,0.3,1.1,0.4c0,0,0.1,0,0.1,0
				c0.4,0.1,0.8,0.3,1.2,0.4c0.1,0,0.1,0,0.2,0.1c0.4,0.1,0.7,0.2,1.1,0.3c0,0,0.1,0,0.1,0c0.4,0.1,0.8,0.2,1.2,0.3
				c0.1,0,0.2,0,0.3,0.1c0.4,0.1,0.8,0.1,1.2,0.2c0,0,0.1,0,0.1,0c0.4,0.1,0.8,0.1,1.3,0.2c0.1,0,0.2,0,0.3,0c0.4,0,0.9,0.1,1.3,0.1
				c0.2,0,0.4,0,0.6,0c0.2,0,0.4,0,0.6,0c0.6,0,1.1-0.1,1.6-0.2c0.3-0.1,0.7-0.2,1-0.3c0.6-0.2,1.3-0.5,1.8-0.8
				c0.7-0.4,1.3-0.9,1.9-1.5c3.5-3.7,4.8-7.9,5.8-12.1c0.1-0.3,0.1-0.6,0.2-0.8C238.9,141.4,239.6,137.3,239.5,133.2z"/>
			<path class="st19" d="M242.4,129.1c-0.1-2-1.4-3-4-3.1c-6.8-0.3-7.7-0.4-7.2,4.6c0.5,4.4,0.6,8.8,0.5,13.3c0,1.6-0.3,3.3-0.9,4.8
				c-0.2,0.5-0.5,1-0.8,1.5c-1.4,2.3-3,2.8-6.3,2c-0.5-0.1-0.9-0.3-1.4-0.4c-0.2-0.1-0.4-0.1-0.6-0.2c-1.3-0.6-2.4-1.3-3.2-2.1
				c-1.2-1.2-2-2.6-2.8-4.1c-0.9-1.8-1.5-3.6-1.9-5.4c-0.1-0.5-0.2-0.9-0.3-1.4c-0.1-0.8-0.2-1.5-0.3-2.3c-0.2-1.9-0.4-3.9-0.5-5.8
				c-0.1-1.9-0.2-3.7-0.2-5.6c0,0,0,0,0,0c0-3.2,0.1-6.3,0.3-9.5c0.2-3.2,0.5-6.3,0.8-9.5c0.1-0.7,0.1-1.3,0.2-2c0.2-2,0.3-4,0.6-6
				c0-0.1,0-0.3,0-0.4c0-0.2,0-0.3,0-0.5c0-0.2-0.1-0.3-0.1-0.4c-0.2-0.4-0.5-0.7-0.8-0.9c-0.1-0.1-0.2-0.1-0.3-0.2
				c-0.2-0.1-0.3-0.2-0.5-0.2c-0.5-0.2-1-0.3-1.6-0.4c-0.3,0-0.6-0.1-0.9-0.1c-0.8-0.1-1.5-0.1-2.1,0.1c-1.3,0.3-2.2,1.1-2.7,2.3
				c-0.2,0.5-0.2,1-0.2,1.5c0,0,0,0,0,0c0,0.2,0,0.3,0,0.5c0.2,7.8-0.2,15.5-0.5,23.3c0,1.1-0.1,2.2-0.1,3.3c0,0.3,0,0.6,0,0.9
				l0-0.1c0,0,0.1,8.5-4,13c-2.6,2.9-5.5,5.5-9.9,6.7c-1.6,0.4-3.2,0.6-4.8,0.2c-4.3-1.3-8-3.4-10.3-7c-1.8-2.8-2.9-5.6-3.3-8.6
				c-1.3-10.6,3.3-19.1,10.8-26.5c1.4-1.4,3.3-2.2,5.3-2.9c1.4-0.5,3-0.7,4.6-0.4c1.1,0.2,1.8,0.4,1.2,1.5c-0.4,0.8-0.7,1.8-0.7,2.8
				c-0.1,1.5,0.5,2.9,2.2,3.8c1.6,0.9,3.2,0.7,4.6-0.1c4.5-2.5,4.8-7.7,0.7-11.1c-4.8-3.9-10.3-5-15.7-3
				c-10.7,3.9-17.9,10.7-21,20.3c-2.1,6.7-2.3,13.7-1.7,20.9c0.6,7.5,4.6,13.3,12.4,17.4c0.6,0.3,1.3,0.7,2,1c0,0,0,0,0,0
				s4.6,3.2,11.1,3.6l0,0c6.5,1,11.7-1.1,16.2-4.7c1.7-1.4,3.2-2.9,4.5-4.7c0.5,0.6,1,1.2,1.5,1.8c0,0,0,0,0,0
				c0.6,0.6,1.2,1.1,1.8,1.6c0,0,0,0,0,0c0.6,0.5,1.3,1,2,1.4c0,0,0,0,0,0c0.4,0.2,0.7,0.4,1.1,0.6c0,0,0,0,0,0
				c0.4,0.2,0.7,0.4,1.1,0.6c0,0,0.1,0,0.1,0c0.4,0.2,0.8,0.4,1.2,0.5c0,0,0.1,0,0.1,0.1c0.4,0.1,0.7,0.3,1.1,0.4c0,0,0.1,0,0.1,0
				c0.4,0.1,0.8,0.3,1.2,0.4c0.1,0,0.1,0,0.2,0.1c0.4,0.1,0.7,0.2,1.1,0.3c0,0,0.1,0,0.1,0c0.4,0.1,0.8,0.2,1.2,0.3
				c0.1,0,0.2,0,0.3,0.1c0.4,0.1,0.8,0.1,1.2,0.2c0,0,0.1,0,0.1,0c0.4,0.1,0.8,0.1,1.3,0.2c0.1,0,0.2,0,0.3,0c0.4,0,0.9,0.1,1.3,0.1
				c0.2,0,0.4,0,0.6,0c0.2,0,0.4,0,0.6,0c0.6,0,1.1-0.1,1.6-0.2c0.3-0.1,0.7-0.2,1-0.3c0.6-0.2,1.3-0.5,1.8-0.8
				c0.7-0.4,1.3-0.9,1.9-1.5c3.5-3.7,4.8-7.9,5.8-12.1c0.1-0.3,0.1-0.6,0.2-0.8C241.8,137.4,242.5,133.2,242.4,129.1z"/>
		</g>
		<g>
			<path class="st20" d="M475.4,30.5c4,5,1.4,12.6-4.9,13.6c-4.3,0.7-8.2-0.7-11-3.9c-4-4.6-1.8-11.6,4-13.4
				C467.5,25.6,472.7,27.2,475.4,30.5z"/>
			<path class="st20" d="M447.8,43c3,4,1.9,10.1-2.4,13.2c-3.7,2.8-8.9,2-11.7-1.7c-2.9-3.9-1.8-10.2,2.4-13.3
				C439.9,38.5,445,39.3,447.8,43z"/>
			<path class="st20" d="M479.9,68.9c2.9,3.6,2.3,8.8-1.3,11.7c-3.6,2.9-8.8,2.4-11.8-1c-3-3.5-2.3-9.3,1.3-12.1
				C471.7,64.7,477.1,65.4,479.9,68.9z"/>
		</g>
	</g>
</g>
</svg>
